<svg width="1024" height="1024" viewBox="0 0 1024 1024" fill="none" xmlns="http://www.w3.org/2000/svg">
<rect width="1024" height="1024" fill="white"/>
<mask id="mask0_4_2" style="mask-type:alpha" maskUnits="userSpaceOnUse" x="112" y="512" width="200" height="200">
<rect x="112" y="512" width="200" height="200" fill="#D9D9D9"/>
</mask>
<g mask="url(#mask0_4_2)">
<path d="M212.444 657.107C204.318 657.107 196.973 655.44 190.409 652.106C183.846 648.668 178.637 643.615 174.782 636.948C170.927 630.176 169 621.789 169 611.788C169.104 601.891 171.032 593.556 174.782 586.784C178.533 579.908 183.742 574.751 190.409 571.313C197.077 567.771 204.63 566 213.069 566C220.674 566 227.29 567.406 232.916 570.219C238.541 572.928 243.073 576.731 246.511 581.627C250.053 586.524 252.398 592.254 253.544 598.817H240.104C239.271 593.817 237.5 589.806 234.791 586.784C232.082 583.763 228.8 581.575 224.946 580.221C221.195 578.866 217.236 578.189 213.069 578.189C203.172 578.189 195.514 581.054 190.097 586.784C184.679 592.41 181.971 600.484 181.971 611.007C181.971 622.05 184.627 630.489 189.941 636.323C195.254 642.053 202.807 644.918 212.6 644.918C217.184 644.918 221.403 644.188 225.258 642.73C229.217 641.271 232.551 639.031 235.26 636.01C237.968 632.885 239.739 628.874 240.573 623.977H254.169C253.023 630.436 250.679 636.166 247.136 641.167C243.698 646.168 239.062 650.075 233.228 652.888C227.498 655.701 220.57 657.107 212.444 657.107Z" fill="#222222"/>
</g>
<mask id="mask1_4_2" style="mask-type:alpha" maskUnits="userSpaceOnUse" x="312" y="512" width="200" height="200">
<rect x="312" y="512" width="200" height="200" fill="#D9D9D9"/>
</mask>
<g mask="url(#mask1_4_2)">
<path d="M412.288 657.732C398.223 657.732 387.492 653.617 380.095 645.387C372.698 637.052 369 625.852 369 611.788C369 602.516 370.563 594.494 373.688 587.722C376.918 580.846 381.71 575.533 388.065 571.782C394.525 567.927 402.599 566 412.288 566C426.352 566 437.031 570.167 444.323 578.502C451.72 586.732 455.419 597.828 455.419 611.788C455.419 620.852 453.752 628.874 450.418 635.854C447.188 642.73 442.396 648.095 436.041 651.95C429.686 655.805 421.768 657.732 412.288 657.732ZM412.131 645.23C418.903 645.23 424.529 643.824 429.009 641.011C433.593 638.094 436.979 634.135 439.166 629.134C441.458 624.029 442.604 618.247 442.604 611.788C442.604 605.224 441.511 599.442 439.323 594.442C437.135 589.337 433.749 585.378 429.165 582.565C424.685 579.648 419.007 578.189 412.131 578.189C402.13 578.189 394.525 581.211 389.315 587.253C384.211 593.296 381.658 601.474 381.658 611.788C381.658 618.143 382.752 623.873 384.94 628.978C387.128 633.979 390.461 637.938 394.941 640.855C399.525 643.772 405.255 645.23 412.131 645.23Z" fill="#222222"/>
</g>
<mask id="mask2_4_2" style="mask-type:alpha" maskUnits="userSpaceOnUse" x="512" y="512" width="200" height="200">
<rect x="512" y="512" width="200" height="200" fill="#D9D9D9"/>
</mask>
<g mask="url(#mask2_4_2)">
<path d="M612.349 657.169C600.264 657.169 590.992 653.731 584.533 646.855C578.178 639.875 575 630.082 575 617.476V567H588.596V617.32C588.596 622.425 589.221 626.748 590.471 630.29C591.825 633.728 593.596 636.541 595.784 638.729C597.972 640.813 600.472 642.376 603.285 643.417C606.202 644.355 609.224 644.824 612.349 644.824C617.037 644.824 621.153 643.99 624.695 642.323C628.341 640.552 631.154 637.635 633.133 633.572C635.217 629.509 636.259 624.092 636.259 617.32V567H649.855V617.476C649.855 630.29 646.677 640.136 640.322 647.012C634.071 653.783 624.747 657.169 612.349 657.169Z" fill="#222222"/>
</g>
<mask id="mask3_4_2" style="mask-type:alpha" maskUnits="userSpaceOnUse" x="712" y="512" width="200" height="200">
<rect x="712" y="512" width="200" height="200" fill="#D9D9D9"/>
</mask>
<g mask="url(#mask3_4_2)">
<path d="M835.884 568H849.167V655.982H824.632L787.596 573.782H787.283V655.982H774V568H796.972L835.571 650.199H835.884V568Z" fill="#222222"/>
</g>
<mask id="mask4_4_2" style="mask-type:alpha" maskUnits="userSpaceOnUse" x="112" y="712" width="200" height="200">
<rect x="112" y="712" width="200" height="200" fill="#D9D9D9"/>
</mask>
<g mask="url(#mask4_4_2)">
<path d="M218.162 770.813V855.982H205.191V770.813H218.162ZM178 779.252V768H245.197V779.252H178Z" fill="#222222"/>
</g>
<mask id="mask5_4_2" style="mask-type:alpha" maskUnits="userSpaceOnUse" x="312" y="712" width="200" height="200">
<rect x="312" y="712" width="200" height="200" fill="#D9D9D9"/>
</mask>
<g mask="url(#mask5_4_2)">
<path d="M413.287 857.42C408.494 857.42 403.858 856.847 399.379 855.701C394.899 854.555 390.836 852.783 387.189 850.387C383.543 847.991 380.626 844.918 378.438 841.167C376.25 837.312 375.104 832.728 375 827.415H388.127C388.127 827.728 388.231 828.561 388.439 829.916C388.648 831.27 389.169 832.833 390.002 834.604C390.94 836.375 392.294 838.094 394.065 839.761C395.941 841.428 398.493 842.834 401.723 843.98C405.056 845.022 409.224 845.543 414.224 845.543C418.079 845.543 421.309 845.126 423.913 844.293C426.518 843.459 428.602 842.365 430.164 841.011C431.727 839.657 432.821 838.25 433.446 836.792C434.175 835.333 434.54 834.031 434.54 832.885C434.54 829.655 433.498 827.051 431.414 825.071C429.435 823.092 426.726 821.529 423.288 820.383C419.85 819.133 416.048 818.039 411.88 817.101C407.817 816.059 403.754 814.965 399.691 813.819C395.628 812.569 391.877 810.954 388.439 808.975C385.106 806.996 382.501 804.443 380.626 801.318C378.751 798.088 377.917 793.973 378.125 788.972C378.438 784.18 380.105 780.065 383.126 776.627C386.147 773.189 390.263 770.584 395.472 768.813C400.785 766.938 406.828 766 413.599 766C419.746 766 425.372 767.094 430.477 769.282C435.686 771.47 439.853 774.751 442.979 779.127C446.208 783.398 447.771 788.868 447.667 795.536H435.009C435.113 791.889 434.384 788.972 432.821 786.784C431.258 784.492 429.227 782.721 426.726 781.471C424.33 780.221 421.83 779.387 419.225 778.971C416.621 778.45 414.277 778.189 412.193 778.189C406.359 778.189 401.514 779.283 397.66 781.471C393.909 783.555 391.982 786.524 391.877 790.379C391.773 793.712 392.763 796.369 394.847 798.348C396.93 800.328 399.691 801.891 403.129 803.037C406.567 804.183 410.37 805.224 414.537 806.162C418.704 807.1 422.819 808.142 426.883 809.288C430.946 810.434 434.644 811.996 437.978 813.976C441.416 815.851 444.073 818.403 445.948 821.633C447.927 824.863 448.813 829.03 448.604 834.135C448.396 839.031 446.729 843.199 443.604 846.637C440.478 850.075 436.311 852.731 431.102 854.607C425.893 856.482 419.954 857.42 413.287 857.42Z" fill="#222222"/>
</g>
</svg>
